<svg width="26" height="26" viewBox="0 0 26 26" fill="none" xmlns="http://www.w3.org/2000/svg">
<path d="M1.55211 15.0114C2.438 14.1175 3.60879 13.5732 4.85153 13.4582C3.77872 12.493 3.10185 11.0996 3.10185 9.5431C3.10185 6.63112 5.46157 4.27139 8.37412 4.27139C11.1558 4.27139 13.4334 6.42607 13.6311 9.1568C11.1564 10.2273 9.41974 12.6936 9.41974 15.5568C9.41974 16.6024 9.65764 17.6243 10.1 18.5515C9.46279 18.8846 8.87541 19.3151 8.36336 19.8316C7.05039 21.1537 6.30441 22.9815 6.31857 24.845L6.3197 24.883L6.32083 24.9153L6.36728 25.7972H0.0522165L0.000106812 18.8132C-0.0106554 17.3886 0.547273 16.0224 1.55211 15.0114Z" fill="#A4A4A4"/>
<path d="M12.8681 19.4731C11.7959 18.5085 11.1167 17.1145 11.1167 15.558C11.1167 12.6454 13.4776 10.2851 16.3896 10.2851C19.3021 10.2851 21.6624 12.6454 21.6624 15.558C21.6624 17.1117 20.9861 18.5045 19.9155 19.4697C22.657 19.6821 24.8225 21.9523 24.8423 24.7476L24.8944 25.7972H16.8778H8.06821L8.0161 24.8264C8.00591 23.4024 8.5644 22.0362 9.56867 21.0251C10.4557 20.1307 11.6259 19.5881 12.8681 19.4731Z" fill="#A4A4A4"/>
<path d="M22.5993 6.34112V8.29981C22.5993 9.11093 21.94 9.76968 21.1283 9.76968C20.3155 9.76968 19.6573 9.11093 19.6573 8.29981V6.34112H17.7009C16.8892 6.34112 16.2304 5.6818 16.2304 4.87011C16.2304 4.059 16.8892 3.39968 17.7009 3.39968H19.6573V1.46987C19.6573 0.658185 20.3155 0 21.1283 0C21.94 0 22.5993 0.658185 22.5993 1.46987V3.39911H24.5297C25.3425 3.39911 26.0001 4.05843 26.0001 4.86955C26.0001 5.68123 25.3425 6.34055 24.5297 6.34055L22.5993 6.34112Z" fill="#A4A4A4"/>
</svg>
