<svg width="17" height="23" viewBox="0 0 17 23" fill="none" xmlns="http://www.w3.org/2000/svg">
<path d="M14.6528 1.03128H11.1156L10.9718 0.38533C10.9224 0.160257 10.7224 0 10.4918 0H6.5074C6.27678 0 6.07756 0.160257 6.0274 0.38533L5.88431 1.03128H2.34641C1.05226 1.03128 0 2.08392 0 3.37808V20.3567C0 21.6509 1.05226 22.7035 2.34641 22.7035H14.6528C15.947 22.7035 17 21.6509 17 20.3567V3.37808C17 2.08392 15.9469 1.03128 14.6528 1.03128ZM15.4662 20.3567C15.4662 20.8049 15.1014 21.1697 14.6528 21.1697H2.34637C1.89849 21.1697 1.53375 20.8049 1.53375 20.3567V3.37808C1.53375 2.92981 1.89849 2.56512 2.34637 2.56512H5.5435L5.4619 2.93208C5.42891 3.07772 5.46489 3.2305 5.55777 3.34663C5.65133 3.4631 5.79292 3.53086 5.9419 3.53086H11.0579C11.2069 3.53086 11.3485 3.4631 11.4413 3.34663C11.535 3.23017 11.5709 3.07777 11.538 2.93208L11.4564 2.56512H14.6528C15.1014 2.56512 15.4662 2.92986 15.4662 3.37808V20.3567Z" fill="#1488CC"/>
<path d="M5.387 9.08714H7.47275L6.97703 8.74864C6.27746 8.27125 6.09776 7.31665 6.57555 6.61717C7.05265 5.91842 8.00754 5.73757 8.70701 6.21573L8.78871 6.27153V5.68625C8.78871 5.3069 8.48088 4.99912 8.10187 4.99912H5.387C5.00809 4.99912 4.70026 5.30695 4.70026 5.68625V8.40001C4.70026 8.77941 5.00809 9.08714 5.387 9.08714Z" fill="#1488CC"/>
<path d="M11.7732 5.32001L9.36913 7.59601L8.27419 6.84898C7.92595 6.60968 7.44807 6.7003 7.20844 7.0497C6.96952 7.39939 7.05942 7.8765 7.40993 8.11541L9.01491 9.21146C9.14599 9.30135 9.2965 9.34514 9.44706 9.34514C9.63804 9.34514 9.82747 9.27405 9.97432 9.13507L12.8277 6.4337C13.1355 6.14275 13.1482 5.65706 12.8576 5.34962C12.5656 5.04218 12.081 5.02906 11.7732 5.32001Z" fill="#1488CC"/>
<path d="M5.387 14.3555H7.47352L6.97703 14.0167C6.27746 13.5392 6.09776 12.5847 6.57555 11.8852C7.05265 11.186 8.00754 11.0052 8.70701 11.4837L8.78871 11.5396V10.9543C8.78871 10.575 8.48088 10.2671 8.10187 10.2671H5.387C5.00809 10.2671 4.70026 10.575 4.70026 10.9543V13.6684C4.70026 14.0477 5.00809 14.3555 5.387 14.3555Z" fill="#1488CC"/>
<path d="M11.7732 10.5884L9.36913 12.864L8.27419 12.117C7.92595 11.8773 7.44807 11.9676 7.20844 12.3177C6.96952 12.6675 7.05942 13.1445 7.40993 13.3834L9.01491 14.4795C9.14599 14.5694 9.2965 14.6132 9.44706 14.6132C9.63804 14.6132 9.82747 14.542 9.97432 14.4031L12.8277 11.7021C13.1355 11.4111 13.1482 10.9258 12.8576 10.618C12.5656 10.3105 12.081 10.2978 11.7732 10.5884Z" fill="#1488CC"/>
<path d="M8.10187 15.5355H5.387C5.00809 15.5355 4.70026 15.8433 4.70026 16.2226V18.9363C4.70026 19.3156 5.00809 19.6235 5.387 19.6235H8.10187C8.48088 19.6235 8.78871 19.3156 8.78871 18.9363V16.2226C8.78871 15.8433 8.48088 15.5355 8.10187 15.5355Z" fill="#1488CC"/>
</svg>
